# xmcd CD database file
#
# Track frame offsets:
#	187
#	6912
#	26437
#	43312
#	57812
#	63737
#	70287
#	73650
#	79850
#	93725
#	109537
#	129200
#	133827
#	144150
#	158412
#	171687
#	194012
#
# Disc length: 2676 seconds
#
# Revision: 1
# Processed by: cddbd v1.5.2PL0 Copyright (c) Steve Scherf et al.
# Submitted via: CDex 1.51
#
DISCID=f70a7211
DTITLE=СВ - Школа
DYEAR=1992
DGENRE=Blues
TTITLE0=Интродукция
TTITLE1=Э.Т.А. Гофман
TTITLE2=Карина
TTITLE3=Ноктюрн
TTITLE4=Жига
TTITLE5=Бурре
TTITLE6=Интродукция
TTITLE7=Песенная тема
TTITLE8=Фригийская тема
TTITLE9=Сарабанда
TTITLE10=Фуга
TTITLE11=Интродукция
TTITLE12=Гавот
TTITLE13=Прелюдия
TTITLE14=Слеза
TTITLE15="СВ"
TTITLE16=Интродукция
EXTD=YEAR: 1992
EXTT0=
EXTT1=
EXTT2=
EXTT3=
EXTT4=
EXTT5=
EXTT6=
EXTT7=
EXTT8=
EXTT9=
EXTT10=
EXTT11=
EXTT12=
EXTT13=
EXTT14=
EXTT15=
EXTT16=
PLAYORDER=
